<?xml version="1.0" encoding="utf-8" standalone="no"?>
<!DOCTYPE svg PUBLIC "-//W3C//DTD SVG 1.1//EN"
  "http://www.w3.org/Graphics/SVG/1.1/DTD/svg11.dtd">
<!-- Created with matplotlib (https://matplotlib.org/) -->
<svg height="576pt" version="1.1" viewBox="0 0 432 576" width="432pt" xmlns="http://www.w3.org/2000/svg" xmlns:xlink="http://www.w3.org/1999/xlink">
 <defs>
  <style type="text/css">
*{stroke-linecap:butt;stroke-linejoin:round;}
  </style>
 </defs>
 <g id="figure_1">
  <g id="patch_1">
   <path d="M 0 576 
L 432 576 
L 432 0 
L 0 0 
z
" style="fill:#ffffff;"/>
  </g>
  <g id="axes_1">
   <g id="LineCollection_1">
    <path clip-path="url(#pf775ace944)" d="M 30.70113 320.073498 
L 70.700626 307.385081 
" style="fill:none;stroke:#000000;"/>
    <path clip-path="url(#pf775ace944)" d="M 30.70113 320.073498 
L 61.544115 391.269614 
" style="fill:none;stroke:#000000;"/>
    <path clip-path="url(#pf775ace944)" d="M 30.70113 320.073498 
L 46.604544 275.664039 
" style="fill:none;stroke:#000000;"/>
    <path clip-path="url(#pf775ace944)" d="M 264.915046 491.367123 
L 221.060177 486.432739 
" style="fill:none;stroke:#000000;"/>
    <path clip-path="url(#pf775ace944)" d="M 264.915046 491.367123 
L 297.203796 504.05554 
" style="fill:none;stroke:#000000;"/>
    <path clip-path="url(#pf775ace944)" d="M 264.915046 491.367123 
L 220.096334 389.154877 
" style="fill:none;stroke:#000000;"/>
    <path clip-path="url(#pf775ace944)" d="M 298.16764 378.581197 
L 362.745139 314.434201 
" style="fill:none;stroke:#000000;"/>
    <path clip-path="url(#pf775ace944)" d="M 298.16764 378.581197 
L 336.239449 279.1886 
" style="fill:none;stroke:#000000;"/>
    <path clip-path="url(#pf775ace944)" d="M 298.16764 378.581197 
L 271.180028 403.95803 
" style="fill:none;stroke:#000000;"/>
    <path clip-path="url(#pf775ace944)" d="M 384.913535 196.008979 
L 401.29887 301.040873 
" style="fill:none;stroke:#000000;"/>
    <path clip-path="url(#pf775ace944)" d="M 384.913535 196.008979 
L 385.395456 85.337789 
" style="fill:none;stroke:#000000;"/>
    <path clip-path="url(#pf775ace944)" d="M 384.913535 196.008979 
L 336.239449 279.1886 
" style="fill:none;stroke:#000000;"/>
    <path clip-path="url(#pf775ace944)" d="M 384.913535 196.008979 
L 300.577248 222.795636 
" style="fill:none;stroke:#000000;"/>
    <path clip-path="url(#pf775ace944)" d="M 384.913535 196.008979 
L 291.420737 123.403039 
" style="fill:none;stroke:#000000;"/>
    <path clip-path="url(#pf775ace944)" d="M 149.253853 229.844757 
L 248.047789 212.926868 
" style="fill:none;stroke:#000000;"/>
    <path clip-path="url(#pf775ace944)" d="M 149.253853 229.844757 
L 208.048293 205.877748 
" style="fill:none;stroke:#000000;"/>
    <path clip-path="url(#pf775ace944)" d="M 149.253853 229.844757 
L 105.880905 234.779141 
" style="fill:none;stroke:#000000;"/>
    <path clip-path="url(#pf775ace944)" d="M 149.253853 229.844757 
L 126.603536 309.499817 
" style="fill:none;stroke:#000000;"/>
    <path clip-path="url(#pf775ace944)" d="M 248.047789 212.926868 
L 221.060177 121.993215 
" style="fill:none;stroke:#000000;"/>
    <path clip-path="url(#pf775ace944)" d="M 248.047789 212.926868 
L 208.048293 205.877748 
" style="fill:none;stroke:#000000;"/>
    <path clip-path="url(#pf775ace944)" d="M 248.047789 212.926868 
L 197.927939 280.598424 
" style="fill:none;stroke:#000000;"/>
    <path clip-path="url(#pf775ace944)" d="M 248.047789 212.926868 
L 300.577248 222.795636 
" style="fill:none;stroke:#000000;"/>
    <path clip-path="url(#pf775ace944)" d="M 166.12111 154.419169 
L 153.109226 124.107951 
" style="fill:none;stroke:#000000;"/>
    <path clip-path="url(#pf775ace944)" d="M 166.12111 154.419169 
L 208.048293 205.877748 
" style="fill:none;stroke:#000000;"/>
    <path clip-path="url(#pf775ace944)" d="M 166.12111 154.419169 
L 135.278125 154.419169 
" style="fill:none;stroke:#000000;"/>
    <path clip-path="url(#pf775ace944)" d="M 153.109226 124.107951 
L 195.036409 37.403771 
" style="fill:none;stroke:#000000;"/>
    <path clip-path="url(#pf775ace944)" d="M 362.745139 314.434201 
L 401.29887 301.040873 
" style="fill:none;stroke:#000000;"/>
    <path clip-path="url(#pf775ace944)" d="M 362.745139 314.434201 
L 271.661949 304.565433 
" style="fill:none;stroke:#000000;"/>
    <path clip-path="url(#pf775ace944)" d="M 156.482678 381.400845 
L 159.374207 365.187868 
" style="fill:none;stroke:#000000;"/>
    <path clip-path="url(#pf775ace944)" d="M 156.482678 381.400845 
L 113.10973 413.826799 
" style="fill:none;stroke:#000000;"/>
    <path clip-path="url(#pf775ace944)" d="M 156.482678 381.400845 
L 148.771931 409.597327 
" style="fill:none;stroke:#000000;"/>
    <path clip-path="url(#pf775ace944)" d="M 98.652081 267.205095 
L 77.92945 270.729655 
" style="fill:none;stroke:#000000;"/>
    <path clip-path="url(#pf775ace944)" d="M 98.652081 267.205095 
L 197.927939 280.598424 
" style="fill:none;stroke:#000000;"/>
    <path clip-path="url(#pf775ace944)" d="M 98.652081 267.205095 
L 105.880905 234.779141 
" style="fill:none;stroke:#000000;"/>
    <path clip-path="url(#pf775ace944)" d="M 98.652081 267.205095 
L 126.603536 309.499817 
" style="fill:none;stroke:#000000;"/>
    <path clip-path="url(#pf775ace944)" d="M 401.29887 301.040873 
L 271.661949 304.565433 
" style="fill:none;stroke:#000000;"/>
    <path clip-path="url(#pf775ace944)" d="M 401.29887 301.040873 
L 336.239449 279.1886 
" style="fill:none;stroke:#000000;"/>
    <path clip-path="url(#pf775ace944)" d="M 65.881409 285.532808 
L 77.92945 270.729655 
" style="fill:none;stroke:#000000;"/>
    <path clip-path="url(#pf775ace944)" d="M 65.881409 285.532808 
L 70.700626 307.385081 
" style="fill:none;stroke:#000000;"/>
    <path clip-path="url(#pf775ace944)" d="M 271.661949 304.565433 
L 197.927939 280.598424 
" style="fill:none;stroke:#000000;"/>
    <path clip-path="url(#pf775ace944)" d="M 271.661949 304.565433 
L 336.239449 279.1886 
" style="fill:none;stroke:#000000;"/>
    <path clip-path="url(#pf775ace944)" d="M 271.661949 304.565433 
L 220.096334 389.154877 
" style="fill:none;stroke:#000000;"/>
    <path clip-path="url(#pf775ace944)" d="M 77.92945 270.729655 
L 46.604544 275.664039 
" style="fill:none;stroke:#000000;"/>
    <path clip-path="url(#pf775ace944)" d="M 195.036409 37.403771 
L 227.325159 67.714988 
" style="fill:none;stroke:#000000;"/>
    <path clip-path="url(#pf775ace944)" d="M 159.374207 365.187868 
L 206.602528 334.171738 
" style="fill:none;stroke:#000000;"/>
    <path clip-path="url(#pf775ace944)" d="M 159.374207 365.187868 
L 157.446521 333.466826 
" style="fill:none;stroke:#000000;"/>
    <path clip-path="url(#pf775ace944)" d="M 159.374207 365.187868 
L 102.025532 345.450331 
" style="fill:none;stroke:#000000;"/>
    <path clip-path="url(#pf775ace944)" d="M 115.519338 516.039044 
L 144.916558 443.433104 
" style="fill:none;stroke:#000000;"/>
    <path clip-path="url(#pf775ace944)" d="M 115.519338 516.039044 
L 182.024524 538.596229 
" style="fill:none;stroke:#000000;"/>
    <path clip-path="url(#pf775ace944)" d="M 206.602528 334.171738 
L 157.446521 333.466826 
" style="fill:none;stroke:#000000;"/>
    <path clip-path="url(#pf775ace944)" d="M 206.602528 334.171738 
L 197.927939 280.598424 
" style="fill:none;stroke:#000000;"/>
    <path clip-path="url(#pf775ace944)" d="M 206.602528 334.171738 
L 220.096334 389.154877 
" style="fill:none;stroke:#000000;"/>
    <path clip-path="url(#pf775ace944)" d="M 157.446521 333.466826 
L 197.927939 280.598424 
" style="fill:none;stroke:#000000;"/>
    <path clip-path="url(#pf775ace944)" d="M 157.446521 333.466826 
L 126.603536 309.499817 
" style="fill:none;stroke:#000000;"/>
    <path clip-path="url(#pf775ace944)" d="M 385.395456 85.337789 
L 291.420737 123.403039 
" style="fill:none;stroke:#000000;"/>
    <path clip-path="url(#pf775ace944)" d="M 221.060177 121.993215 
L 208.048293 205.877748 
" style="fill:none;stroke:#000000;"/>
    <path clip-path="url(#pf775ace944)" d="M 221.060177 121.993215 
L 227.325159 67.714988 
" style="fill:none;stroke:#000000;"/>
    <path clip-path="url(#pf775ace944)" d="M 221.060177 121.993215 
L 291.420737 123.403039 
" style="fill:none;stroke:#000000;"/>
    <path clip-path="url(#pf775ace944)" d="M 208.048293 205.877748 
L 126.603536 212.926868 
" style="fill:none;stroke:#000000;"/>
    <path clip-path="url(#pf775ace944)" d="M 113.10973 413.826799 
L 144.916558 443.433104 
" style="fill:none;stroke:#000000;"/>
    <path clip-path="url(#pf775ace944)" d="M 113.10973 413.826799 
L 102.025532 345.450331 
" style="fill:none;stroke:#000000;"/>
    <path clip-path="url(#pf775ace944)" d="M 113.10973 413.826799 
L 78.411372 427.92504 
" style="fill:none;stroke:#000000;"/>
    <path clip-path="url(#pf775ace944)" d="M 144.916558 443.433104 
L 148.771931 409.597327 
" style="fill:none;stroke:#000000;"/>
    <path clip-path="url(#pf775ace944)" d="M 144.916558 443.433104 
L 78.411372 427.92504 
" style="fill:none;stroke:#000000;"/>
    <path clip-path="url(#pf775ace944)" d="M 144.916558 443.433104 
L 178.169151 462.465729 
" style="fill:none;stroke:#000000;"/>
    <path clip-path="url(#pf775ace944)" d="M 236.963591 534.366757 
L 182.024524 538.596229 
" style="fill:none;stroke:#000000;"/>
    <path clip-path="url(#pf775ace944)" d="M 236.963591 534.366757 
L 297.203796 504.05554 
" style="fill:none;stroke:#000000;"/>
    <path clip-path="url(#pf775ace944)" d="M 227.325159 67.714988 
L 291.420737 123.403039 
" style="fill:none;stroke:#000000;"/>
    <path clip-path="url(#pf775ace944)" d="M 102.025532 345.450331 
L 70.700626 307.385081 
" style="fill:none;stroke:#000000;"/>
    <path clip-path="url(#pf775ace944)" d="M 102.025532 345.450331 
L 126.603536 309.499817 
" style="fill:none;stroke:#000000;"/>
    <path clip-path="url(#pf775ace944)" d="M 102.025532 345.450331 
L 61.544115 391.269614 
" style="fill:none;stroke:#000000;"/>
    <path clip-path="url(#pf775ace944)" d="M 182.024524 538.596229 
L 178.169151 462.465729 
" style="fill:none;stroke:#000000;"/>
    <path clip-path="url(#pf775ace944)" d="M 336.239449 279.1886 
L 300.577248 222.795636 
" style="fill:none;stroke:#000000;"/>
    <path clip-path="url(#pf775ace944)" d="M 300.577248 222.795636 
L 291.420737 123.403039 
" style="fill:none;stroke:#000000;"/>
    <path clip-path="url(#pf775ace944)" d="M 297.203796 504.05554 
L 271.180028 403.95803 
" style="fill:none;stroke:#000000;"/>
    <path clip-path="url(#pf775ace944)" d="M 297.203796 504.05554 
L 388.286986 474.449234 
" style="fill:none;stroke:#000000;"/>
    <path clip-path="url(#pf775ace944)" d="M 297.203796 504.05554 
L 322.263721 444.138016 
" style="fill:none;stroke:#000000;"/>
    <path clip-path="url(#pf775ace944)" d="M 105.880905 234.779141 
L 126.603536 212.926868 
" style="fill:none;stroke:#000000;"/>
    <path clip-path="url(#pf775ace944)" d="M 87.085961 119.878479 
L 135.278125 154.419169 
" style="fill:none;stroke:#000000;"/>
    <path clip-path="url(#pf775ace944)" d="M 87.085961 119.878479 
L 46.604544 275.664039 
" style="fill:none;stroke:#000000;"/>
    <path clip-path="url(#pf775ace944)" d="M 271.180028 403.95803 
L 322.263721 444.138016 
" style="fill:none;stroke:#000000;"/>
    <path clip-path="url(#pf775ace944)" d="M 271.180028 403.95803 
L 220.096334 389.154877 
" style="fill:none;stroke:#000000;"/>
    <path clip-path="url(#pf775ace944)" d="M 135.278125 154.419169 
L 126.603536 212.926868 
" style="fill:none;stroke:#000000;"/>
    <path clip-path="url(#pf775ace944)" d="M 135.278125 154.419169 
L 46.604544 275.664039 
" style="fill:none;stroke:#000000;"/>
    <path clip-path="url(#pf775ace944)" d="M 388.286986 474.449234 
L 322.263721 444.138016 
" style="fill:none;stroke:#000000;"/>
    <path clip-path="url(#pf775ace944)" d="M 78.411372 427.92504 
L 61.544115 391.269614 
" style="fill:none;stroke:#000000;"/>
    <path clip-path="url(#pf775ace944)" d="M 178.169151 462.465729 
L 221.060177 486.432739 
" style="fill:none;stroke:#000000;"/>
    <path clip-path="url(#pf775ace944)" d="M 178.169151 462.465729 
L 220.096334 389.154877 
" style="fill:none;stroke:#000000;"/>
   </g>
   <g id="PathCollection_1">
    <defs>
     <path d="M 0 8.660254 
C 2.296726 8.660254 4.499694 7.747755 6.123724 6.123724 
C 7.747755 4.499694 8.660254 2.296726 8.660254 0 
C 8.660254 -2.296726 7.747755 -4.499694 6.123724 -6.123724 
C 4.499694 -7.747755 2.296726 -8.660254 0 -8.660254 
C -2.296726 -8.660254 -4.499694 -7.747755 -6.123724 -6.123724 
C -7.747755 -4.499694 -8.660254 -2.296726 -8.660254 0 
C -8.660254 2.296726 -7.747755 4.499694 -6.123724 6.123724 
C -4.499694 7.747755 -2.296726 8.660254 0 8.660254 
z
" id="m51537113e6" style="stroke:#000000;"/>
    </defs>
    <g clip-path="url(#pf775ace944)">
     <use style="fill:#ffffff;stroke:#000000;" x="30.70113" xlink:href="#m51537113e6" y="320.073498"/>
     <use style="fill:#ffffff;stroke:#000000;" x="264.915046" xlink:href="#m51537113e6" y="491.367123"/>
     <use style="fill:#ffffff;stroke:#000000;" x="298.16764" xlink:href="#m51537113e6" y="378.581197"/>
     <use style="fill:#ffffff;stroke:#000000;" x="384.913535" xlink:href="#m51537113e6" y="196.008979"/>
     <use style="fill:#ffffff;stroke:#000000;" x="149.253853" xlink:href="#m51537113e6" y="229.844757"/>
     <use style="fill:#ffffff;stroke:#000000;" x="248.047789" xlink:href="#m51537113e6" y="212.926868"/>
     <use style="fill:#ffffff;stroke:#000000;" x="166.12111" xlink:href="#m51537113e6" y="154.419169"/>
     <use style="fill:#ffffff;stroke:#000000;" x="153.109226" xlink:href="#m51537113e6" y="124.107951"/>
     <use style="fill:#ffffff;stroke:#000000;" x="362.745139" xlink:href="#m51537113e6" y="314.434201"/>
     <use style="fill:#ffffff;stroke:#000000;" x="156.482678" xlink:href="#m51537113e6" y="381.400845"/>
     <use style="fill:#ffffff;stroke:#000000;" x="98.652081" xlink:href="#m51537113e6" y="267.205095"/>
     <use style="fill:#ffffff;stroke:#000000;" x="401.29887" xlink:href="#m51537113e6" y="301.040873"/>
     <use style="fill:#ffffff;stroke:#000000;" x="65.881409" xlink:href="#m51537113e6" y="285.532808"/>
     <use style="fill:#ffffff;stroke:#000000;" x="271.661949" xlink:href="#m51537113e6" y="304.565433"/>
     <use style="fill:#ffffff;stroke:#000000;" x="77.92945" xlink:href="#m51537113e6" y="270.729655"/>
     <use style="fill:#ffffff;stroke:#000000;" x="195.036409" xlink:href="#m51537113e6" y="37.403771"/>
     <use style="fill:#ffffff;stroke:#000000;" x="159.374207" xlink:href="#m51537113e6" y="365.187868"/>
     <use style="fill:#ffffff;stroke:#000000;" x="115.519338" xlink:href="#m51537113e6" y="516.039044"/>
     <use style="fill:#ffffff;stroke:#000000;" x="206.602528" xlink:href="#m51537113e6" y="334.171738"/>
     <use style="fill:#ffffff;stroke:#000000;" x="157.446521" xlink:href="#m51537113e6" y="333.466826"/>
     <use style="fill:#ffffff;stroke:#000000;" x="385.395456" xlink:href="#m51537113e6" y="85.337789"/>
     <use style="fill:#ffffff;stroke:#000000;" x="221.060177" xlink:href="#m51537113e6" y="121.993215"/>
     <use style="fill:#ffffff;stroke:#000000;" x="208.048293" xlink:href="#m51537113e6" y="205.877748"/>
     <use style="fill:#ffffff;stroke:#000000;" x="113.10973" xlink:href="#m51537113e6" y="413.826799"/>
     <use style="fill:#ffffff;stroke:#000000;" x="144.916558" xlink:href="#m51537113e6" y="443.433104"/>
     <use style="fill:#ffffff;stroke:#000000;" x="197.927939" xlink:href="#m51537113e6" y="280.598424"/>
     <use style="fill:#ffffff;stroke:#000000;" x="236.963591" xlink:href="#m51537113e6" y="534.366757"/>
     <use style="fill:#ffffff;stroke:#000000;" x="227.325159" xlink:href="#m51537113e6" y="67.714988"/>
     <use style="fill:#ffffff;stroke:#000000;" x="102.025532" xlink:href="#m51537113e6" y="345.450331"/>
     <use style="fill:#ffffff;stroke:#000000;" x="70.700626" xlink:href="#m51537113e6" y="307.385081"/>
     <use style="fill:#ffffff;stroke:#000000;" x="182.024524" xlink:href="#m51537113e6" y="538.596229"/>
     <use style="fill:#ffffff;stroke:#000000;" x="336.239449" xlink:href="#m51537113e6" y="279.1886"/>
     <use style="fill:#ffffff;stroke:#000000;" x="300.577248" xlink:href="#m51537113e6" y="222.795636"/>
     <use style="fill:#ffffff;stroke:#000000;" x="148.771931" xlink:href="#m51537113e6" y="409.597327"/>
     <use style="fill:#ffffff;stroke:#000000;" x="297.203796" xlink:href="#m51537113e6" y="504.05554"/>
     <use style="fill:#ffffff;stroke:#000000;" x="105.880905" xlink:href="#m51537113e6" y="234.779141"/>
     <use style="fill:#ffffff;stroke:#000000;" x="87.085961" xlink:href="#m51537113e6" y="119.878479"/>
     <use style="fill:#ffffff;stroke:#000000;" x="271.180028" xlink:href="#m51537113e6" y="403.95803"/>
     <use style="fill:#ffffff;stroke:#000000;" x="135.278125" xlink:href="#m51537113e6" y="154.419169"/>
     <use style="fill:#ffffff;stroke:#000000;" x="126.603536" xlink:href="#m51537113e6" y="212.926868"/>
     <use style="fill:#ffffff;stroke:#000000;" x="388.286986" xlink:href="#m51537113e6" y="474.449234"/>
     <use style="fill:#ffffff;stroke:#000000;" x="322.263721" xlink:href="#m51537113e6" y="444.138016"/>
     <use style="fill:#ffffff;stroke:#000000;" x="78.411372" xlink:href="#m51537113e6" y="427.92504"/>
     <use style="fill:#ffffff;stroke:#000000;" x="291.420737" xlink:href="#m51537113e6" y="123.403039"/>
     <use style="fill:#ffffff;stroke:#000000;" x="126.603536" xlink:href="#m51537113e6" y="309.499817"/>
     <use style="fill:#ffffff;stroke:#000000;" x="178.169151" xlink:href="#m51537113e6" y="462.465729"/>
     <use style="fill:#ffffff;stroke:#000000;" x="61.544115" xlink:href="#m51537113e6" y="391.269614"/>
     <use style="fill:#ffffff;stroke:#000000;" x="221.060177" xlink:href="#m51537113e6" y="486.432739"/>
     <use style="fill:#ffffff;stroke:#000000;" x="46.604544" xlink:href="#m51537113e6" y="275.664039"/>
     <use style="fill:#ffffff;stroke:#000000;" x="220.096334" xlink:href="#m51537113e6" y="389.154877"/>
    </g>
   </g>
   <g id="text_1">
    <g clip-path="url(#pf775ace944)">
     <!-- 1 -->
     <defs>
      <path d="M 12.40625 8.296875 
L 28.515625 8.296875 
L 28.515625 63.921875 
L 10.984375 60.40625 
L 10.984375 69.390625 
L 28.421875 72.90625 
L 38.28125 72.90625 
L 38.28125 8.296875 
L 54.390625 8.296875 
L 54.390625 0 
L 12.40625 0 
z
" id="DejaVuSans-49"/>
     </defs>
     <g transform="translate(26.88363 323.384748)scale(0.12 -0.12)">
      <use xlink:href="#DejaVuSans-49"/>
     </g>
    </g>
   </g>
   <g id="text_2">
    <g clip-path="url(#pf775ace944)">
     <!-- 2 -->
     <defs>
      <path d="M 19.1875 8.296875 
L 53.609375 8.296875 
L 53.609375 0 
L 7.328125 0 
L 7.328125 8.296875 
Q 12.9375 14.109375 22.625 23.890625 
Q 32.328125 33.6875 34.8125 36.53125 
Q 39.546875 41.84375 41.421875 45.53125 
Q 43.3125 49.21875 43.3125 52.78125 
Q 43.3125 58.59375 39.234375 62.25 
Q 35.15625 65.921875 28.609375 65.921875 
Q 23.96875 65.921875 18.8125 64.3125 
Q 13.671875 62.703125 7.8125 59.421875 
L 7.8125 69.390625 
Q 13.765625 71.78125 18.9375 73 
Q 24.125 74.21875 28.421875 74.21875 
Q 39.75 74.21875 46.484375 68.546875 
Q 53.21875 62.890625 53.21875 53.421875 
Q 53.21875 48.921875 51.53125 44.890625 
Q 49.859375 40.875 45.40625 35.40625 
Q 44.1875 33.984375 37.640625 27.21875 
Q 31.109375 20.453125 19.1875 8.296875 
z
" id="DejaVuSans-50"/>
     </defs>
     <g transform="translate(261.097546 494.678373)scale(0.12 -0.12)">
      <use xlink:href="#DejaVuSans-50"/>
     </g>
    </g>
   </g>
   <g id="text_3">
    <g clip-path="url(#pf775ace944)">
     <!-- 3 -->
     <defs>
      <path d="M 40.578125 39.3125 
Q 47.65625 37.796875 51.625 33 
Q 55.609375 28.21875 55.609375 21.1875 
Q 55.609375 10.40625 48.1875 4.484375 
Q 40.765625 -1.421875 27.09375 -1.421875 
Q 22.515625 -1.421875 17.65625 -0.515625 
Q 12.796875 0.390625 7.625 2.203125 
L 7.625 11.71875 
Q 11.71875 9.328125 16.59375 8.109375 
Q 21.484375 6.890625 26.8125 6.890625 
Q 36.078125 6.890625 40.9375 10.546875 
Q 45.796875 14.203125 45.796875 21.1875 
Q 45.796875 27.640625 41.28125 31.265625 
Q 36.765625 34.90625 28.71875 34.90625 
L 20.21875 34.90625 
L 20.21875 43.015625 
L 29.109375 43.015625 
Q 36.375 43.015625 40.234375 45.921875 
Q 44.09375 48.828125 44.09375 54.296875 
Q 44.09375 59.90625 40.109375 62.90625 
Q 36.140625 65.921875 28.71875 65.921875 
Q 24.65625 65.921875 20.015625 65.03125 
Q 15.375 64.15625 9.8125 62.3125 
L 9.8125 71.09375 
Q 15.4375 72.65625 20.34375 73.4375 
Q 25.25 74.21875 29.59375 74.21875 
Q 40.828125 74.21875 47.359375 69.109375 
Q 53.90625 64.015625 53.90625 55.328125 
Q 53.90625 49.265625 50.4375 45.09375 
Q 46.96875 40.921875 40.578125 39.3125 
z
" id="DejaVuSans-51"/>
     </defs>
     <g transform="translate(294.35014 381.892447)scale(0.12 -0.12)">
      <use xlink:href="#DejaVuSans-51"/>
     </g>
    </g>
   </g>
   <g id="text_4">
    <g clip-path="url(#pf775ace944)">
     <!-- 4 -->
     <defs>
      <path d="M 37.796875 64.3125 
L 12.890625 25.390625 
L 37.796875 25.390625 
z
M 35.203125 72.90625 
L 47.609375 72.90625 
L 47.609375 25.390625 
L 58.015625 25.390625 
L 58.015625 17.1875 
L 47.609375 17.1875 
L 47.609375 0 
L 37.796875 0 
L 37.796875 17.1875 
L 4.890625 17.1875 
L 4.890625 26.703125 
z
" id="DejaVuSans-52"/>
     </defs>
     <g transform="translate(381.096035 199.320229)scale(0.12 -0.12)">
      <use xlink:href="#DejaVuSans-52"/>
     </g>
    </g>
   </g>
   <g id="text_5">
    <g clip-path="url(#pf775ace944)">
     <!-- 5 -->
     <defs>
      <path d="M 10.796875 72.90625 
L 49.515625 72.90625 
L 49.515625 64.59375 
L 19.828125 64.59375 
L 19.828125 46.734375 
Q 21.96875 47.46875 24.109375 47.828125 
Q 26.265625 48.1875 28.421875 48.1875 
Q 40.625 48.1875 47.75 41.5 
Q 54.890625 34.8125 54.890625 23.390625 
Q 54.890625 11.625 47.5625 5.09375 
Q 40.234375 -1.421875 26.90625 -1.421875 
Q 22.3125 -1.421875 17.546875 -0.640625 
Q 12.796875 0.140625 7.71875 1.703125 
L 7.71875 11.625 
Q 12.109375 9.234375 16.796875 8.0625 
Q 21.484375 6.890625 26.703125 6.890625 
Q 35.15625 6.890625 40.078125 11.328125 
Q 45.015625 15.765625 45.015625 23.390625 
Q 45.015625 31 40.078125 35.4375 
Q 35.15625 39.890625 26.703125 39.890625 
Q 22.75 39.890625 18.8125 39.015625 
Q 14.890625 38.140625 10.796875 36.28125 
z
" id="DejaVuSans-53"/>
     </defs>
     <g transform="translate(145.436353 233.156007)scale(0.12 -0.12)">
      <use xlink:href="#DejaVuSans-53"/>
     </g>
    </g>
   </g>
   <g id="text_6">
    <g clip-path="url(#pf775ace944)">
     <!-- 6 -->
     <defs>
      <path d="M 33.015625 40.375 
Q 26.375 40.375 22.484375 35.828125 
Q 18.609375 31.296875 18.609375 23.390625 
Q 18.609375 15.53125 22.484375 10.953125 
Q 26.375 6.390625 33.015625 6.390625 
Q 39.65625 6.390625 43.53125 10.953125 
Q 47.40625 15.53125 47.40625 23.390625 
Q 47.40625 31.296875 43.53125 35.828125 
Q 39.65625 40.375 33.015625 40.375 
z
M 52.59375 71.296875 
L 52.59375 62.3125 
Q 48.875 64.0625 45.09375 64.984375 
Q 41.3125 65.921875 37.59375 65.921875 
Q 27.828125 65.921875 22.671875 59.328125 
Q 17.53125 52.734375 16.796875 39.40625 
Q 19.671875 43.65625 24.015625 45.921875 
Q 28.375 48.1875 33.59375 48.1875 
Q 44.578125 48.1875 50.953125 41.515625 
Q 57.328125 34.859375 57.328125 23.390625 
Q 57.328125 12.15625 50.6875 5.359375 
Q 44.046875 -1.421875 33.015625 -1.421875 
Q 20.359375 -1.421875 13.671875 8.265625 
Q 6.984375 17.96875 6.984375 36.375 
Q 6.984375 53.65625 15.1875 63.9375 
Q 23.390625 74.21875 37.203125 74.21875 
Q 40.921875 74.21875 44.703125 73.484375 
Q 48.484375 72.75 52.59375 71.296875 
z
" id="DejaVuSans-54"/>
     </defs>
     <g transform="translate(244.230289 216.238118)scale(0.12 -0.12)">
      <use xlink:href="#DejaVuSans-54"/>
     </g>
    </g>
   </g>
   <g id="text_7">
    <g clip-path="url(#pf775ace944)">
     <!-- 7 -->
     <defs>
      <path d="M 8.203125 72.90625 
L 55.078125 72.90625 
L 55.078125 68.703125 
L 28.609375 0 
L 18.3125 0 
L 43.21875 64.59375 
L 8.203125 64.59375 
z
" id="DejaVuSans-55"/>
     </defs>
     <g transform="translate(162.30361 157.730419)scale(0.12 -0.12)">
      <use xlink:href="#DejaVuSans-55"/>
     </g>
    </g>
   </g>
   <g id="text_8">
    <g clip-path="url(#pf775ace944)">
     <!-- 8 -->
     <defs>
      <path d="M 31.78125 34.625 
Q 24.75 34.625 20.71875 30.859375 
Q 16.703125 27.09375 16.703125 20.515625 
Q 16.703125 13.921875 20.71875 10.15625 
Q 24.75 6.390625 31.78125 6.390625 
Q 38.8125 6.390625 42.859375 10.171875 
Q 46.921875 13.96875 46.921875 20.515625 
Q 46.921875 27.09375 42.890625 30.859375 
Q 38.875 34.625 31.78125 34.625 
z
M 21.921875 38.8125 
Q 15.578125 40.375 12.03125 44.71875 
Q 8.5 49.078125 8.5 55.328125 
Q 8.5 64.0625 14.71875 69.140625 
Q 20.953125 74.21875 31.78125 74.21875 
Q 42.671875 74.21875 48.875 69.140625 
Q 55.078125 64.0625 55.078125 55.328125 
Q 55.078125 49.078125 51.53125 44.71875 
Q 48 40.375 41.703125 38.8125 
Q 48.828125 37.15625 52.796875 32.3125 
Q 56.78125 27.484375 56.78125 20.515625 
Q 56.78125 9.90625 50.3125 4.234375 
Q 43.84375 -1.421875 31.78125 -1.421875 
Q 19.734375 -1.421875 13.25 4.234375 
Q 6.78125 9.90625 6.78125 20.515625 
Q 6.78125 27.484375 10.78125 32.3125 
Q 14.796875 37.15625 21.921875 38.8125 
z
M 18.3125 54.390625 
Q 18.3125 48.734375 21.84375 45.5625 
Q 25.390625 42.390625 31.78125 42.390625 
Q 38.140625 42.390625 41.71875 45.5625 
Q 45.3125 48.734375 45.3125 54.390625 
Q 45.3125 60.0625 41.71875 63.234375 
Q 38.140625 66.40625 31.78125 66.40625 
Q 25.390625 66.40625 21.84375 63.234375 
Q 18.3125 60.0625 18.3125 54.390625 
z
" id="DejaVuSans-56"/>
     </defs>
     <g transform="translate(149.291726 127.419201)scale(0.12 -0.12)">
      <use xlink:href="#DejaVuSans-56"/>
     </g>
    </g>
   </g>
   <g id="text_9">
    <g clip-path="url(#pf775ace944)">
     <!-- 9 -->
     <defs>
      <path d="M 10.984375 1.515625 
L 10.984375 10.5 
Q 14.703125 8.734375 18.5 7.8125 
Q 22.3125 6.890625 25.984375 6.890625 
Q 35.75 6.890625 40.890625 13.453125 
Q 46.046875 20.015625 46.78125 33.40625 
Q 43.953125 29.203125 39.59375 26.953125 
Q 35.25 24.703125 29.984375 24.703125 
Q 19.046875 24.703125 12.671875 31.3125 
Q 6.296875 37.9375 6.296875 49.421875 
Q 6.296875 60.640625 12.9375 67.421875 
Q 19.578125 74.21875 30.609375 74.21875 
Q 43.265625 74.21875 49.921875 64.515625 
Q 56.59375 54.828125 56.59375 36.375 
Q 56.59375 19.140625 48.40625 8.859375 
Q 40.234375 -1.421875 26.421875 -1.421875 
Q 22.703125 -1.421875 18.890625 -0.6875 
Q 15.09375 0.046875 10.984375 1.515625 
z
M 30.609375 32.421875 
Q 37.25 32.421875 41.125 36.953125 
Q 45.015625 41.5 45.015625 49.421875 
Q 45.015625 57.28125 41.125 61.84375 
Q 37.25 66.40625 30.609375 66.40625 
Q 23.96875 66.40625 20.09375 61.84375 
Q 16.21875 57.28125 16.21875 49.421875 
Q 16.21875 41.5 20.09375 36.953125 
Q 23.96875 32.421875 30.609375 32.421875 
z
" id="DejaVuSans-57"/>
     </defs>
     <g transform="translate(358.927639 317.745451)scale(0.12 -0.12)">
      <use xlink:href="#DejaVuSans-57"/>
     </g>
    </g>
   </g>
   <g id="text_10">
    <g clip-path="url(#pf775ace944)">
     <!-- 10 -->
     <defs>
      <path d="M 31.78125 66.40625 
Q 24.171875 66.40625 20.328125 58.90625 
Q 16.5 51.421875 16.5 36.375 
Q 16.5 21.390625 20.328125 13.890625 
Q 24.171875 6.390625 31.78125 6.390625 
Q 39.453125 6.390625 43.28125 13.890625 
Q 47.125 21.390625 47.125 36.375 
Q 47.125 51.421875 43.28125 58.90625 
Q 39.453125 66.40625 31.78125 66.40625 
z
M 31.78125 74.21875 
Q 44.046875 74.21875 50.515625 64.515625 
Q 56.984375 54.828125 56.984375 36.375 
Q 56.984375 17.96875 50.515625 8.265625 
Q 44.046875 -1.421875 31.78125 -1.421875 
Q 19.53125 -1.421875 13.0625 8.265625 
Q 6.59375 17.96875 6.59375 36.375 
Q 6.59375 54.828125 13.0625 64.515625 
Q 19.53125 74.21875 31.78125 74.21875 
z
" id="DejaVuSans-48"/>
     </defs>
     <g transform="translate(148.847678 384.712095)scale(0.12 -0.12)">
      <use xlink:href="#DejaVuSans-49"/>
      <use x="63.623047" xlink:href="#DejaVuSans-48"/>
     </g>
    </g>
   </g>
   <g id="text_11">
    <g clip-path="url(#pf775ace944)">
     <!-- 11 -->
     <g transform="translate(91.017081 270.516345)scale(0.12 -0.12)">
      <use xlink:href="#DejaVuSans-49"/>
      <use x="63.623047" xlink:href="#DejaVuSans-49"/>
     </g>
    </g>
   </g>
   <g id="text_12">
    <g clip-path="url(#pf775ace944)">
     <!-- 12 -->
     <g transform="translate(393.66387 304.352123)scale(0.12 -0.12)">
      <use xlink:href="#DejaVuSans-49"/>
      <use x="63.623047" xlink:href="#DejaVuSans-50"/>
     </g>
    </g>
   </g>
   <g id="text_13">
    <g clip-path="url(#pf775ace944)">
     <!-- 13 -->
     <g transform="translate(58.246409 288.844058)scale(0.12 -0.12)">
      <use xlink:href="#DejaVuSans-49"/>
      <use x="63.623047" xlink:href="#DejaVuSans-51"/>
     </g>
    </g>
   </g>
   <g id="text_14">
    <g clip-path="url(#pf775ace944)">
     <!-- 14 -->
     <g transform="translate(264.026949 307.876683)scale(0.12 -0.12)">
      <use xlink:href="#DejaVuSans-49"/>
      <use x="63.623047" xlink:href="#DejaVuSans-52"/>
     </g>
    </g>
   </g>
   <g id="text_15">
    <g clip-path="url(#pf775ace944)">
     <!-- 15 -->
     <g transform="translate(70.29445 274.040905)scale(0.12 -0.12)">
      <use xlink:href="#DejaVuSans-49"/>
      <use x="63.623047" xlink:href="#DejaVuSans-53"/>
     </g>
    </g>
   </g>
   <g id="text_16">
    <g clip-path="url(#pf775ace944)">
     <!-- 16 -->
     <g transform="translate(187.401409 40.715021)scale(0.12 -0.12)">
      <use xlink:href="#DejaVuSans-49"/>
      <use x="63.623047" xlink:href="#DejaVuSans-54"/>
     </g>
    </g>
   </g>
   <g id="text_17">
    <g clip-path="url(#pf775ace944)">
     <!-- 17 -->
     <g transform="translate(151.739207 368.499118)scale(0.12 -0.12)">
      <use xlink:href="#DejaVuSans-49"/>
      <use x="63.623047" xlink:href="#DejaVuSans-55"/>
     </g>
    </g>
   </g>
   <g id="text_18">
    <g clip-path="url(#pf775ace944)">
     <!-- 18 -->
     <g transform="translate(107.884338 519.350294)scale(0.12 -0.12)">
      <use xlink:href="#DejaVuSans-49"/>
      <use x="63.623047" xlink:href="#DejaVuSans-56"/>
     </g>
    </g>
   </g>
   <g id="text_19">
    <g clip-path="url(#pf775ace944)">
     <!-- 19 -->
     <g transform="translate(198.967528 337.482988)scale(0.12 -0.12)">
      <use xlink:href="#DejaVuSans-49"/>
      <use x="63.623047" xlink:href="#DejaVuSans-57"/>
     </g>
    </g>
   </g>
   <g id="text_20">
    <g clip-path="url(#pf775ace944)">
     <!-- 20 -->
     <g transform="translate(149.811521 336.778076)scale(0.12 -0.12)">
      <use xlink:href="#DejaVuSans-50"/>
      <use x="63.623047" xlink:href="#DejaVuSans-48"/>
     </g>
    </g>
   </g>
   <g id="text_21">
    <g clip-path="url(#pf775ace944)">
     <!-- 21 -->
     <g transform="translate(377.760456 88.649039)scale(0.12 -0.12)">
      <use xlink:href="#DejaVuSans-50"/>
      <use x="63.623047" xlink:href="#DejaVuSans-49"/>
     </g>
    </g>
   </g>
   <g id="text_22">
    <g clip-path="url(#pf775ace944)">
     <!-- 22 -->
     <g transform="translate(213.425177 125.304465)scale(0.12 -0.12)">
      <use xlink:href="#DejaVuSans-50"/>
      <use x="63.623047" xlink:href="#DejaVuSans-50"/>
     </g>
    </g>
   </g>
   <g id="text_23">
    <g clip-path="url(#pf775ace944)">
     <!-- 23 -->
     <g transform="translate(200.413293 209.188998)scale(0.12 -0.12)">
      <use xlink:href="#DejaVuSans-50"/>
      <use x="63.623047" xlink:href="#DejaVuSans-51"/>
     </g>
    </g>
   </g>
   <g id="text_24">
    <g clip-path="url(#pf775ace944)">
     <!-- 24 -->
     <g transform="translate(105.47473 417.138049)scale(0.12 -0.12)">
      <use xlink:href="#DejaVuSans-50"/>
      <use x="63.623047" xlink:href="#DejaVuSans-52"/>
     </g>
    </g>
   </g>
   <g id="text_25">
    <g clip-path="url(#pf775ace944)">
     <!-- 25 -->
     <g transform="translate(137.281558 446.744354)scale(0.12 -0.12)">
      <use xlink:href="#DejaVuSans-50"/>
      <use x="63.623047" xlink:href="#DejaVuSans-53"/>
     </g>
    </g>
   </g>
   <g id="text_26">
    <g clip-path="url(#pf775ace944)">
     <!-- 26 -->
     <g transform="translate(190.292939 283.909674)scale(0.12 -0.12)">
      <use xlink:href="#DejaVuSans-50"/>
      <use x="63.623047" xlink:href="#DejaVuSans-54"/>
     </g>
    </g>
   </g>
   <g id="text_27">
    <g clip-path="url(#pf775ace944)">
     <!-- 27 -->
     <g transform="translate(229.328591 537.678007)scale(0.12 -0.12)">
      <use xlink:href="#DejaVuSans-50"/>
      <use x="63.623047" xlink:href="#DejaVuSans-55"/>
     </g>
    </g>
   </g>
   <g id="text_28">
    <g clip-path="url(#pf775ace944)">
     <!-- 28 -->
     <g transform="translate(219.690159 71.026238)scale(0.12 -0.12)">
      <use xlink:href="#DejaVuSans-50"/>
      <use x="63.623047" xlink:href="#DejaVuSans-56"/>
     </g>
    </g>
   </g>
   <g id="text_29">
    <g clip-path="url(#pf775ace944)">
     <!-- 29 -->
     <g transform="translate(94.390532 348.761581)scale(0.12 -0.12)">
      <use xlink:href="#DejaVuSans-50"/>
      <use x="63.623047" xlink:href="#DejaVuSans-57"/>
     </g>
    </g>
   </g>
   <g id="text_30">
    <g clip-path="url(#pf775ace944)">
     <!-- 30 -->
     <g transform="translate(63.065626 310.696331)scale(0.12 -0.12)">
      <use xlink:href="#DejaVuSans-51"/>
      <use x="63.623047" xlink:href="#DejaVuSans-48"/>
     </g>
    </g>
   </g>
   <g id="text_31">
    <g clip-path="url(#pf775ace944)">
     <!-- 31 -->
     <g transform="translate(174.389524 541.907479)scale(0.12 -0.12)">
      <use xlink:href="#DejaVuSans-51"/>
      <use x="63.623047" xlink:href="#DejaVuSans-49"/>
     </g>
    </g>
   </g>
   <g id="text_32">
    <g clip-path="url(#pf775ace944)">
     <!-- 32 -->
     <g transform="translate(328.604449 282.49985)scale(0.12 -0.12)">
      <use xlink:href="#DejaVuSans-51"/>
      <use x="63.623047" xlink:href="#DejaVuSans-50"/>
     </g>
    </g>
   </g>
   <g id="text_33">
    <g clip-path="url(#pf775ace944)">
     <!-- 33 -->
     <g transform="translate(292.942248 226.106886)scale(0.12 -0.12)">
      <use xlink:href="#DejaVuSans-51"/>
      <use x="63.623047" xlink:href="#DejaVuSans-51"/>
     </g>
    </g>
   </g>
   <g id="text_34">
    <g clip-path="url(#pf775ace944)">
     <!-- 34 -->
     <g transform="translate(141.136931 412.908577)scale(0.12 -0.12)">
      <use xlink:href="#DejaVuSans-51"/>
      <use x="63.623047" xlink:href="#DejaVuSans-52"/>
     </g>
    </g>
   </g>
   <g id="text_35">
    <g clip-path="url(#pf775ace944)">
     <!-- 35 -->
     <g transform="translate(289.568796 507.36679)scale(0.12 -0.12)">
      <use xlink:href="#DejaVuSans-51"/>
      <use x="63.623047" xlink:href="#DejaVuSans-53"/>
     </g>
    </g>
   </g>
   <g id="text_36">
    <g clip-path="url(#pf775ace944)">
     <!-- 36 -->
     <g transform="translate(98.245905 238.090391)scale(0.12 -0.12)">
      <use xlink:href="#DejaVuSans-51"/>
      <use x="63.623047" xlink:href="#DejaVuSans-54"/>
     </g>
    </g>
   </g>
   <g id="text_37">
    <g clip-path="url(#pf775ace944)">
     <!-- 37 -->
     <g transform="translate(79.450961 123.189729)scale(0.12 -0.12)">
      <use xlink:href="#DejaVuSans-51"/>
      <use x="63.623047" xlink:href="#DejaVuSans-55"/>
     </g>
    </g>
   </g>
   <g id="text_38">
    <g clip-path="url(#pf775ace944)">
     <!-- 38 -->
     <g transform="translate(263.545028 407.26928)scale(0.12 -0.12)">
      <use xlink:href="#DejaVuSans-51"/>
      <use x="63.623047" xlink:href="#DejaVuSans-56"/>
     </g>
    </g>
   </g>
   <g id="text_39">
    <g clip-path="url(#pf775ace944)">
     <!-- 39 -->
     <g transform="translate(127.643125 157.730419)scale(0.12 -0.12)">
      <use xlink:href="#DejaVuSans-51"/>
      <use x="63.623047" xlink:href="#DejaVuSans-57"/>
     </g>
    </g>
   </g>
   <g id="text_40">
    <g clip-path="url(#pf775ace944)">
     <!-- 40 -->
     <g transform="translate(118.968536 216.238118)scale(0.12 -0.12)">
      <use xlink:href="#DejaVuSans-52"/>
      <use x="63.623047" xlink:href="#DejaVuSans-48"/>
     </g>
    </g>
   </g>
   <g id="text_41">
    <g clip-path="url(#pf775ace944)">
     <!-- 41 -->
     <g transform="translate(380.651986 477.760484)scale(0.12 -0.12)">
      <use xlink:href="#DejaVuSans-52"/>
      <use x="63.623047" xlink:href="#DejaVuSans-49"/>
     </g>
    </g>
   </g>
   <g id="text_42">
    <g clip-path="url(#pf775ace944)">
     <!-- 42 -->
     <g transform="translate(314.628721 447.449266)scale(0.12 -0.12)">
      <use xlink:href="#DejaVuSans-52"/>
      <use x="63.623047" xlink:href="#DejaVuSans-50"/>
     </g>
    </g>
   </g>
   <g id="text_43">
    <g clip-path="url(#pf775ace944)">
     <!-- 43 -->
     <g transform="translate(70.776372 431.23629)scale(0.12 -0.12)">
      <use xlink:href="#DejaVuSans-52"/>
      <use x="63.623047" xlink:href="#DejaVuSans-51"/>
     </g>
    </g>
   </g>
   <g id="text_44">
    <g clip-path="url(#pf775ace944)">
     <!-- 44 -->
     <g transform="translate(283.785737 126.714289)scale(0.12 -0.12)">
      <use xlink:href="#DejaVuSans-52"/>
      <use x="63.623047" xlink:href="#DejaVuSans-52"/>
     </g>
    </g>
   </g>
   <g id="text_45">
    <g clip-path="url(#pf775ace944)">
     <!-- 45 -->
     <g transform="translate(118.968536 312.811067)scale(0.12 -0.12)">
      <use xlink:href="#DejaVuSans-52"/>
      <use x="63.623047" xlink:href="#DejaVuSans-53"/>
     </g>
    </g>
   </g>
   <g id="text_46">
    <g clip-path="url(#pf775ace944)">
     <!-- 46 -->
     <g transform="translate(170.534151 465.776979)scale(0.12 -0.12)">
      <use xlink:href="#DejaVuSans-52"/>
      <use x="63.623047" xlink:href="#DejaVuSans-54"/>
     </g>
    </g>
   </g>
   <g id="text_47">
    <g clip-path="url(#pf775ace944)">
     <!-- 47 -->
     <g transform="translate(53.909115 394.580864)scale(0.12 -0.12)">
      <use xlink:href="#DejaVuSans-52"/>
      <use x="63.623047" xlink:href="#DejaVuSans-55"/>
     </g>
    </g>
   </g>
   <g id="text_48">
    <g clip-path="url(#pf775ace944)">
     <!-- 48 -->
     <g transform="translate(213.425177 489.743989)scale(0.12 -0.12)">
      <use xlink:href="#DejaVuSans-52"/>
      <use x="63.623047" xlink:href="#DejaVuSans-56"/>
     </g>
    </g>
   </g>
   <g id="text_49">
    <g clip-path="url(#pf775ace944)">
     <!-- 49 -->
     <g transform="translate(38.969544 278.975289)scale(0.12 -0.12)">
      <use xlink:href="#DejaVuSans-52"/>
      <use x="63.623047" xlink:href="#DejaVuSans-57"/>
     </g>
    </g>
   </g>
   <g id="text_50">
    <g clip-path="url(#pf775ace944)">
     <!-- 50 -->
     <g transform="translate(212.461334 392.466127)scale(0.12 -0.12)">
      <use xlink:href="#DejaVuSans-53"/>
      <use x="63.623047" xlink:href="#DejaVuSans-48"/>
     </g>
    </g>
   </g>
  </g>
 </g>
 <defs>
  <clipPath id="pf775ace944">
   <rect height="554.4" width="410.4" x="10.8" y="10.8"/>
  </clipPath>
 </defs>
</svg>
